<?xml version="1.0" encoding="iso-8859-1"?>
<!-- Generator: Adobe Illustrator 15.0.0, SVG Export Plug-In . SVG Version: 6.00 Build 0)  -->
<!DOCTYPE svg PUBLIC "-//W3C//DTD SVG 1.1//EN" "http://www.w3.org/Graphics/SVG/1.1/DTD/svg11.dtd">
<svg version="1.1" id="&#x30EC;&#x30A4;&#x30E4;&#x30FC;_1"
	 xmlns="http://www.w3.org/2000/svg" xmlns:xlink="http://www.w3.org/1999/xlink" x="0px" y="0px" width="141.732px"
	 height="141.731px" viewBox="0 0 141.732 141.731" style="enable-background:new 0 0 141.732 141.731;" xml:space="preserve">
<g>
	<circle style="fill-rule:evenodd;clip-rule:evenodd;fill:#3399CC;" cx="70.866" cy="70.866" r="62.739"/>
	<path style="fill-rule:evenodd;clip-rule:evenodd;fill:#FBFBFB;" d="M98.374,34.519c-0.794-0.794-2.071-0.803-2.853-0.025
		l-24.78,24.669L45.966,34.494c-0.784-0.778-2.061-0.77-2.853,0.025l-8.842,8.839c-0.791,0.795-0.803,2.072-0.024,2.853
		L58.89,70.964L34.288,95.46c-0.82,0.816-0.825,2.135-0.014,2.947l9.051,9.051c0.811,0.812,2.13,0.806,2.947-0.014l24.468-24.58
		l24.471,24.58c0.817,0.819,2.136,0.825,2.947,0.014l9.054-9.051c0.81-0.813,0.804-2.131-0.016-2.947L82.591,70.964l24.646-24.753
		c0.778-0.78,0.77-2.058-0.025-2.853L98.374,34.519z"/>
</g>
</svg>
